<svg width="40" height="39" viewBox="0 0 40 39" fill="none" xmlns="http://www.w3.org/2000/svg">
<circle cx="20.079" cy="19.4969" r="19.4969" fill="#D1D1D1"/>
<path d="M29.5016 15.5027C29.4908 14.684 29.3394 13.8735 29.0541 13.1074C28.8067 12.4612 28.4288 11.8744 27.9446 11.3843C27.4603 10.8943 26.8804 10.5119 26.2419 10.2615C25.4946 9.97758 24.7052 9.82408 23.9071 9.8075C22.8797 9.76102 22.5539 9.74805 19.9457 9.74805C17.3376 9.74805 17.0033 9.74805 15.9833 9.8075C15.1856 9.8242 14.3965 9.9777 13.6496 10.2615C13.0109 10.5117 12.431 10.894 11.9467 11.3841C11.4625 11.8742 11.0846 12.4611 10.8374 13.1074C10.5563 13.8631 10.405 14.6619 10.3899 15.4692C10.344 16.51 10.3301 16.8397 10.3301 19.4792C10.3301 22.1187 10.3301 22.456 10.3899 23.4893C10.4059 24.2978 10.5565 25.0955 10.8374 25.8532C11.0851 26.4993 11.4632 27.086 11.9476 27.5759C12.432 28.0657 13.012 28.4479 13.6507 28.6981C14.3955 28.9934 15.1848 29.1579 15.9843 29.1845C17.0129 29.2309 17.3386 29.245 19.9468 29.245C22.555 29.245 22.8893 29.245 23.9093 29.1845C24.7073 29.1686 25.4968 29.0154 26.244 28.7316C26.8824 28.4809 27.4622 28.0984 27.9464 27.6084C28.4305 27.1184 28.8085 26.5316 29.0562 25.8856C29.3371 25.129 29.4877 24.3313 29.5037 23.5217C29.5497 22.4819 29.5636 22.1522 29.5636 19.5117C29.5614 16.8721 29.5614 16.5371 29.5016 15.5027ZM19.9393 24.4707C17.2115 24.4707 15.0017 22.2344 15.0017 19.4738C15.0017 16.7132 17.2115 14.4769 19.9393 14.4769C21.2489 14.4769 22.5048 15.0034 23.4308 15.9405C24.3567 16.8776 24.8769 18.1486 24.8769 19.4738C24.8769 20.7991 24.3567 22.0701 23.4308 23.0072C22.5048 23.9443 21.2489 24.4707 19.9393 24.4707ZM25.0735 15.4573C24.4358 15.4573 23.9221 14.9363 23.9221 14.2921C23.9221 14.1391 23.9519 13.9877 24.0097 13.8464C24.0675 13.7051 24.1523 13.5767 24.2592 13.4685C24.366 13.3604 24.4929 13.2746 24.6325 13.2161C24.7722 13.1575 24.9218 13.1274 25.0729 13.1274C25.2241 13.1274 25.3737 13.1575 25.5133 13.2161C25.653 13.2746 25.7798 13.3604 25.8867 13.4685C25.9936 13.5767 26.0783 13.7051 26.1362 13.8464C26.194 13.9877 26.2238 14.1391 26.2238 14.2921C26.2238 14.9363 25.709 15.4573 25.0735 15.4573Z" fill="#F5F5F5"/>
<path d="M19.9457 22.6588C21.7646 22.6588 23.2392 21.2433 23.2392 19.4971C23.2392 17.751 21.7646 16.3354 19.9457 16.3354C18.1269 16.3354 16.6523 17.751 16.6523 19.4971C16.6523 21.2433 18.1269 22.6588 19.9457 22.6588Z" fill="#F5F5F5"/>
</svg>
