<svg width="39" height="39" viewBox="0 0 39 39" fill="none" xmlns="http://www.w3.org/2000/svg">
<circle cx="19.4969" cy="19.4969" r="19.4969" fill="#F89D13"/>
<path d="M28.9196 15.5027C28.9088 14.684 28.7574 13.8735 28.4721 13.1074C28.2246 12.4612 27.8468 11.8744 27.3625 11.3843C26.8783 10.8943 26.2984 10.5119 25.6599 10.2615C24.9126 9.97758 24.1231 9.82408 23.3251 9.8075C22.2977 9.76102 21.9719 9.74805 19.3637 9.74805C16.7555 9.74805 16.4212 9.74805 15.4012 9.8075C14.6036 9.8242 13.8145 9.9777 13.0676 10.2615C12.4289 10.5117 11.8489 10.894 11.3647 11.3841C10.8804 11.8742 10.5026 12.4611 10.2554 13.1074C9.97429 13.8631 9.82294 14.6619 9.80786 15.4692C9.76193 16.51 9.74805 16.8397 9.74805 19.4792C9.74805 22.1187 9.74805 22.456 9.80786 23.4893C9.82388 24.2978 9.97447 25.0955 10.2554 25.8532C10.503 26.4993 10.8811 27.086 11.3655 27.5759C11.8499 28.0657 12.43 28.4479 13.0686 28.6981C13.8135 28.9934 14.6027 29.1579 15.4023 29.1845C16.4308 29.2309 16.7566 29.245 19.3648 29.245C21.973 29.245 22.3073 29.245 23.3273 29.1845C24.1253 29.1686 24.9148 29.0154 25.662 28.7316C26.3004 28.4809 26.8801 28.0984 27.3643 27.6084C27.8485 27.1184 28.2265 26.5316 28.4742 25.8856C28.7551 25.129 28.9057 24.3313 28.9217 23.5217C28.9676 22.4819 28.9815 22.1522 28.9815 19.5117C28.9794 16.8721 28.9794 16.5371 28.9196 15.5027ZM19.3573 24.4707C16.6295 24.4707 14.4197 22.2344 14.4197 19.4738C14.4197 16.7132 16.6295 14.4769 19.3573 14.4769C20.6668 14.4769 21.9227 15.0034 22.8487 15.9405C23.7747 16.8776 24.2949 18.1486 24.2949 19.4738C24.2949 20.7991 23.7747 22.0701 22.8487 23.0072C21.9227 23.9443 20.6668 24.4707 19.3573 24.4707ZM24.4914 15.4573C23.8538 15.4573 23.3401 14.9363 23.3401 14.2921C23.3401 14.1391 23.3698 13.9877 23.4277 13.8464C23.4855 13.7051 23.5703 13.5767 23.6771 13.4685C23.784 13.3604 23.9109 13.2746 24.0505 13.2161C24.1901 13.1575 24.3398 13.1274 24.4909 13.1274C24.642 13.1274 24.7917 13.1575 24.9313 13.2161C25.0709 13.2746 25.1978 13.3604 25.3047 13.4685C25.4115 13.5767 25.4963 13.7051 25.5541 13.8464C25.612 13.9877 25.6417 14.1391 25.6417 14.2921C25.6417 14.9363 25.1269 15.4573 24.4914 15.4573Z" fill="#F5F5F5"/>
<path d="M19.3637 22.6588C21.1826 22.6588 22.6571 21.2433 22.6571 19.4971C22.6571 17.751 21.1826 16.3354 19.3637 16.3354C17.5448 16.3354 16.0703 17.751 16.0703 19.4971C16.0703 21.2433 17.5448 22.6588 19.3637 22.6588Z" fill="#F5F5F5"/>
</svg>
