<svg width="14" height="10" viewBox="0 0 14 10" fill="none" xmlns="http://www.w3.org/2000/svg">
<path fill-rule="evenodd" clip-rule="evenodd" d="M14 5.00014C14 5.13275 13.9473 5.25993 13.8536 5.3537C13.7598 5.44746 13.6326 5.50014 13.5 5.50014L1.707 5.50014L4.854 8.64614C4.94789 8.74003 5.00063 8.86737 5.00063 9.00014C5.00063 9.13292 4.94789 9.26026 4.854 9.35414C4.76011 9.44803 4.63277 9.50077 4.5 9.50077C4.36722 9.50077 4.23989 9.44803 4.146 9.35414L0.146 5.35414C0.0994365 5.3077 0.0624941 5.25252 0.0372875 5.19178C0.0120809 5.13103 -0.000893792 5.06591 -0.00089379 5.00014C-0.000893787 4.93438 0.012081 4.86925 0.0372875 4.80851C0.0624941 4.74776 0.0994366 4.69259 0.146 4.64614L4.146 0.646143C4.23989 0.552256 4.36722 0.499511 4.5 0.499511C4.63278 0.499511 4.76011 0.552256 4.854 0.646143C4.94789 0.740029 5.00063 0.867367 5.00063 1.00014C5.00063 1.13292 4.94789 1.26026 4.854 1.35414L1.707 4.50014L13.5 4.50014C13.6326 4.50014 13.7598 4.55282 13.8536 4.64659C13.9473 4.74036 14 4.86753 14 5.00014Z" fill="#2B2213"/>
</svg>
