<svg width="25" height="25" viewBox="0 0 25 25" fill="none" xmlns="http://www.w3.org/2000/svg">
<path d="M12.5 0C5.60728 0 0 5.60728 0 12.5C0 19.3927 5.60728 25 12.5 25C19.3927 25 25 19.3927 25 12.5C25 5.60728 19.3927 0 12.5 0ZM16.3615 13.2365L11.1531 18.4448C10.95 18.6479 10.6833 18.75 10.4166 18.75C10.15 18.75 9.8833 18.6479 9.68018 18.4448C9.2729 18.0375 9.2729 17.3792 9.68018 16.9719L14.1521 12.5L9.68023 8.02812C9.27295 7.62085 9.27295 6.9625 9.68023 6.55522C10.0875 6.14795 10.7458 6.14795 11.1531 6.55522L16.3615 11.7636C16.7688 12.1708 16.7688 12.8292 16.3615 13.2365Z" fill="#F89D13"/>
</svg>
