<svg width="84" height="84" viewBox="0 0 84 84" fill="none" xmlns="http://www.w3.org/2000/svg">
<circle cx="42" cy="42" r="42" fill="#F89D13"/>
<path d="M37.1406 39.3359H40.6094C42.3594 39.3203 43.7422 38.8672 44.7578 37.9766C45.7891 37.0859 46.3047 35.7969 46.3047 34.1094C46.3047 32.4844 45.875 31.2266 45.0156 30.3359C44.1719 29.4297 42.875 28.9766 41.125 28.9766C39.5938 28.9766 38.3359 29.4219 37.3516 30.3125C36.3672 31.1875 35.875 32.3359 35.875 33.7578H30.1797C30.1797 32.0078 30.6406 30.4141 31.5625 28.9766C32.5 27.5391 33.7969 26.4219 35.4531 25.625C37.125 24.8125 38.9922 24.4062 41.0547 24.4062C44.4609 24.4062 47.1328 25.2656 49.0703 26.9844C51.0234 28.6875 52 31.0625 52 34.1094C52 35.6406 51.5078 37.0859 50.5234 38.4453C49.5547 39.7891 48.2969 40.8047 46.75 41.4922C48.625 42.1328 50.0469 43.1406 51.0156 44.5156C52 45.8906 52.4922 47.5312 52.4922 49.4375C52.4922 52.5 51.4375 54.9375 49.3281 56.75C47.2344 58.5625 44.4766 59.4688 41.0547 59.4688C37.7734 59.4688 35.0859 58.5938 32.9922 56.8438C30.8984 55.0938 29.8516 52.7656 29.8516 49.8594H35.5469C35.5469 51.3594 36.0469 52.5781 37.0469 53.5156C38.0625 54.4531 39.4219 54.9219 41.125 54.9219C42.8906 54.9219 44.2812 54.4531 45.2969 53.5156C46.3125 52.5781 46.8203 51.2188 46.8203 49.4375C46.8203 47.6406 46.2891 46.2578 45.2266 45.2891C44.1641 44.3203 42.5859 43.8359 40.4922 43.8359H37.1406V39.3359Z" fill="#F5F5F5"/>
</svg>
