<svg width="84" height="84" viewBox="0 0 84 84" fill="none" xmlns="http://www.w3.org/2000/svg">
<circle cx="42" cy="42" r="42" fill="#F89D13"/>
<path d="M53.5 59H30.5547V55.0859L41.9219 42.6875C43.5625 40.8594 44.7266 39.3359 45.4141 38.1172C46.1172 36.8828 46.4688 35.6484 46.4688 34.4141C46.4688 32.7891 46.0078 31.4766 45.0859 30.4766C44.1797 29.4766 42.9531 28.9766 41.4062 28.9766C39.5625 28.9766 38.1328 29.5391 37.1172 30.6641C36.1016 31.7891 35.5938 33.3281 35.5938 35.2812H29.8984C29.8984 33.2031 30.3672 31.3359 31.3047 29.6797C32.2578 28.0078 33.6094 26.7109 35.3594 25.7891C37.125 24.8672 39.1562 24.4062 41.4531 24.4062C44.7656 24.4062 47.375 25.2422 49.2812 26.9141C51.2031 28.5703 52.1641 30.8672 52.1641 33.8047C52.1641 35.5078 51.6797 37.2969 50.7109 39.1719C49.7578 41.0312 48.1875 43.1484 46 45.5234L37.6562 54.4531H53.5V59Z" fill="#F5F5F5"/>
</svg>
