<svg width="25" height="25" viewBox="0 0 25 25" fill="none" xmlns="http://www.w3.org/2000/svg">
<g clip-path="url(#clip0)">
<path d="M12.5 25C19.3927 25 25 19.3927 25 12.5C25 5.60728 19.3927 -4.90204e-07 12.5 -1.09278e-06C5.60728 -1.69537e-06 1.69537e-06 5.60727 1.09278e-06 12.5C4.90204e-07 19.3927 5.60728 25 12.5 25ZM8.63853 11.7635L13.8469 6.55522C14.05 6.3521 14.3167 6.25 14.5834 6.25C14.85 6.25 15.1167 6.3521 15.3198 6.55522C15.7271 6.9625 15.7271 7.62085 15.3198 8.02812L10.8479 12.5L15.3198 16.9719C15.7271 17.3791 15.7271 18.0375 15.3198 18.4448C14.9125 18.852 14.2542 18.852 13.8469 18.4448L8.63853 13.2364C8.23125 12.8291 8.23125 12.1708 8.63853 11.7635Z" fill="#F89D13"/>
</g>
<defs>
<clipPath id="clip0">
<rect width="25" height="25" fill="white" transform="translate(25 25) rotate(-180)"/>
</clipPath>
</defs>
</svg>
