<svg width="40" height="39" viewBox="0 0 40 39" fill="none" xmlns="http://www.w3.org/2000/svg">
<path d="M20.3134 0C9.54535 0 0.816406 8.72894 0.816406 19.4969C0.816406 30.2649 9.54535 38.9939 20.3134 38.9939C31.0814 38.9939 39.8103 30.2649 39.8103 19.4969C39.8103 8.72894 31.0814 0 20.3134 0ZM27.8116 21.997C27.8116 21.997 29.5358 23.6989 29.9603 24.489C29.9725 24.5052 29.9786 24.5215 29.9826 24.5296C30.1552 24.82 30.1959 25.0455 30.1106 25.214C29.9684 25.4943 29.481 25.6324 29.3144 25.6446H26.268C26.0568 25.6446 25.6141 25.5897 25.0779 25.2201C24.6656 24.9317 24.2595 24.4585 23.8634 23.9975C23.2724 23.311 22.7606 22.718 22.2448 22.718C22.1792 22.7179 22.1141 22.7282 22.0518 22.7485C21.6619 22.8744 21.1623 23.4309 21.1623 24.9134C21.1623 25.3765 20.7967 25.6425 20.5388 25.6425H19.1435C18.6683 25.6425 16.1926 25.476 13.9992 23.1628C11.3143 20.3296 8.89748 14.6471 8.87717 14.5943C8.72485 14.2267 9.03965 14.0297 9.38288 14.0297H12.4597C12.87 14.0297 13.004 14.2795 13.0975 14.5009C13.2071 14.7588 13.6092 15.7844 14.2693 16.938C15.3396 18.8186 15.9956 19.5822 16.5216 19.5822C16.6202 19.5811 16.7171 19.556 16.8039 19.5091C17.4904 19.1273 17.3624 16.68 17.3319 16.1723C17.3319 16.0769 17.3299 15.0776 16.9786 14.5983C16.7267 14.251 16.2982 14.119 16.0382 14.0703C16.1435 13.9251 16.2821 13.8074 16.4424 13.7271C16.9136 13.4915 17.7625 13.457 18.6053 13.457H19.0745C19.9884 13.4691 20.224 13.528 20.555 13.6113C21.2252 13.7717 21.2395 14.2043 21.1806 15.6849C21.1623 16.1053 21.144 16.5805 21.144 17.1411C21.144 17.2629 21.1379 17.3929 21.1379 17.531C21.1176 18.2845 21.0932 19.1395 21.6253 19.4909C21.6947 19.5344 21.7749 19.5576 21.8569 19.5579C22.0417 19.5579 22.5981 19.5579 24.1051 16.9725C24.5699 16.1403 24.9737 15.2756 25.3135 14.3851C25.344 14.3323 25.4333 14.1698 25.5389 14.1069C25.6169 14.0671 25.7033 14.0469 25.7908 14.048H29.4079C29.8019 14.048 30.072 14.1069 30.1228 14.2592C30.2121 14.5009 30.1065 15.2381 28.4554 17.4741L27.7181 18.447C26.2213 20.4088 26.2213 20.5083 27.8116 21.997Z" fill="#F89D13"/>
</svg>
