<svg width="40" height="40" viewBox="0 0 40 40" fill="none" xmlns="http://www.w3.org/2000/svg">
<path d="M20.3143 0.924316C9.54633 0.924316 0.817383 9.65326 0.817383 20.4213C0.817383 31.1893 9.54633 39.9182 20.3143 39.9182C31.0823 39.9182 39.8113 31.1893 39.8113 20.4213C39.8113 9.65326 31.0823 0.924316 20.3143 0.924316ZM27.8125 22.9213C27.8125 22.9213 29.5368 24.6233 29.9613 25.4133C29.9734 25.4295 29.9795 25.4458 29.9836 25.4539C30.1562 25.7443 30.1968 25.9698 30.1115 26.1383C29.9694 26.4186 29.482 26.5567 29.3154 26.5689H26.269C26.0578 26.5689 25.6151 26.5141 25.0789 26.1444C24.6666 25.856 24.2604 25.3828 23.8644 24.9218C23.2734 24.2353 22.7616 23.6423 22.2457 23.6423C22.1802 23.6422 22.1151 23.6525 22.0528 23.6728C21.6629 23.7987 21.1633 24.3552 21.1633 25.8378C21.1633 26.3008 20.7977 26.5669 20.5398 26.5669H19.1445C18.6693 26.5669 16.1936 26.4003 14.0002 24.0871C11.3153 21.2539 8.89846 15.5714 8.87815 15.5186C8.72583 15.151 9.04063 14.954 9.38385 14.954H12.4607C12.871 14.954 13.005 15.2038 13.0984 15.4252C13.2081 15.6831 13.6102 16.7087 14.2703 17.8623C15.3406 19.7429 15.9966 20.5066 16.5226 20.5066C16.6212 20.5054 16.7181 20.4803 16.8049 20.4334C17.4913 20.0516 17.3634 17.6044 17.3329 17.0966C17.3329 17.0012 17.3309 16.002 16.9795 15.5227C16.7277 15.1754 16.2992 15.0434 16.0392 14.9946C16.1444 14.8494 16.2831 14.7317 16.4434 14.6514C16.9145 14.4158 17.7635 14.3813 18.6063 14.3813H19.0755C19.9894 14.3935 20.225 14.4524 20.556 14.5356C21.2262 14.6961 21.2404 15.1287 21.1815 16.6092C21.1633 17.0296 21.145 17.5048 21.145 18.0654C21.145 18.1872 21.1389 18.3172 21.1389 18.4553C21.1186 19.2088 21.0942 20.0638 21.6263 20.4152C21.6957 20.4587 21.7759 20.4819 21.8578 20.4822C22.0427 20.4822 22.5991 20.4822 24.1061 17.8968C24.5708 17.0647 24.9747 16.1999 25.3145 15.3094C25.3449 15.2566 25.4343 15.0941 25.5399 15.0312C25.6179 14.9914 25.7043 14.9712 25.7917 14.9723H29.4088C29.8028 14.9723 30.073 15.0312 30.1237 15.1835C30.2131 15.4252 30.1075 16.1624 28.4563 18.3985L27.7191 19.3713C26.2223 21.3331 26.2223 21.4327 27.8125 22.9213Z" fill="#D1D1D1"/>
</svg>
